<?xml version="1.0" encoding="utf-8"?>
<!-- Generator: Adobe Illustrator 19.0.0, SVG Export Plug-In . SVG Version: 6.00 Build 0)  -->
<svg version="1.1" id="Layer_1" xmlns="http://www.w3.org/2000/svg" xmlns:xlink="http://www.w3.org/1999/xlink" x="0px" y="0px"
	 viewBox="0 0 600 600" style="enable-background:new 0 0 600 600;" xml:space="preserve">
<style type="text/css">
	.st0{fill:#111;}
	.st1{fill:#fff;}
</style>
<g id="XMLID_2_">
	<circle id="XMLID_1_" class="st0" cx="300" cy="300" r="300"/>
	<g id="XMLID_8_">
		<path id="XMLID_27_" class="st1" d="M42.9,214.1c11.7-23.1,22.5-47,35.5-69.4c8.4-14.4,23-20.1,40.5-19.9
			c62.7,1,125.3,1,188.1,1.5c4.6,0,9.3,0.5,14.7,0.9c0,18.5,0,36,0,56.4c-25.5,0-50.6,0-76.5,0c-1.2,19.9-2.2,37-3.1,54
			c-1.5,32.4-3.9,65-3.6,97.4c0.2,15.4,4.3,31.2,8.9,46.1c3.8,12.2,11.7,22.1,27.1,21.1c14.9-1,24.7-8.7,30.2-24.2
			c2.6-7,2.9-17.7,16.5-11c-1,30.5-11.5,57.9-33.8,79.2c-23.7,22.5-60,9.9-68.9-24.5c-5.8-22.5-8.1-46.3-8.6-69.4
			c-1.2-55-0.3-110.1-0.3-166.5c-14.9,0-32.6,0-52.1,0c0,12.2,0,24.5,0,36.9c0.2,69.1-6.9,137.3-25.7,204c-2.4,8.6-5.3,18-10.8,24.7
			c-4.8,5.8-14.6,12.5-20.4,11.1c-7.7-1.7-16.6-9.4-20.1-17c-3.6-7.9-3.1-19-0.9-27.8c3.9-15.1,9.1-30.3,16.6-44.1
			c25-45.3,29.7-94.1,28.8-144.3c-0.2-14.2,0-28.6,0-44.1c-22.6-2.7-39.3,4.5-52.6,19.7c-5.7,6.3-8.9,14.9-14.7,21.1
			c-3.6,3.9-9.9,5.3-15.1,7.9C42.9,227.5,42.9,220.8,42.9,214.1z"/>
		<path id="XMLID_26_" class="st1" d="M362.1,319.2c16.3-6.7,32.4-13.2,51.1-20.9c0.5,11.1,1,19.9,1.5,30.9
			c6.5-7.2,11.5-13.9,17.5-19.5c12-11.1,25.5-12.2,34.8-3.3c6.7,6.3,8.7,13.9,2.9,21.8c-5.5,7.4-12.5,7.2-20.4,3.3
			c-5.5-2.9-15.3-8.1-17-6.3c-7.4,7.7-16.5,17.1-17.3,26.6c-2.2,24.7-0.5,49.7-0.5,74.6c0,16.5,12.5,20.2,24.5,26.2
			c-24.9,0-49.5,0-74.4,0c29.1-5.7,22.1-28.1,22.5-46.8c0.3-17.1,0.2-34.5,0-51.8C387.1,326.2,387.1,326.2,362.1,319.2z"/>
		<path id="XMLID_25_" class="st1" d="M510.9,284.6c13.2-1.9,23.8-3.4,35.1-5.1c-0.9,5-2.1,12.5-3.4,20.7c-17.7,0-34.8,0-54.3,0
			c7.4-9.4,14.1-17.1,20.1-25.5c4.8-7,11-14.2,12.5-22.1c1.5-7.9,0.7-20.1-4.3-24.2c-4.8-3.9-16.1,0.2-24.9,0.9
			c1.5-8.7,7.9-18.3,19.4-19.5c8.4-0.9,19,2.1,25.9,7.2c9.4,7.2,8.6,19.4,2.7,28.8C531.8,258,522.2,269.3,510.9,284.6z"/>
	</g>
</g>
</svg>
